<?xml version="1.0" encoding="UTF-8"?> <svg xmlns="http://www.w3.org/2000/svg" xmlns:xlink="http://www.w3.org/1999/xlink" width="38px" height="34px" viewBox="0 0 38 34" version="1.1"><title>commute</title><g id="Page-1" stroke="none" stroke-width="1" fill="none" fill-rule="evenodd"><g id="commute" transform="translate(0.667970, 0.003420)" fill="#FFFFFF" fill-rule="nonzero"><path d="M28.33333,0 L8.33333,0 C6.49333,0 5,1.49166 5,3.33333 L5,29.99998 C5,31.83998 6.49333,33.33338 8.33333,33.33338 C10.17333,33.33338 11.66663,31.83998 11.66663,29.99998 L25.00003,29.99998 C25.00003,31.83998 26.49333,33.33338 28.33333,33.33338 C30.17333,33.33338 31.66663,31.83998 31.66663,29.99998 L31.66663,3.33333 C31.66663,1.49166 30.17333,0 28.33333,0 Z M8.33333,6.66668 L28.33333,6.66668 L28.33333,18.33338 L8.33333,18.33338 L8.33333,6.66668 Z M10.83333,26.66668 C9.45333,26.66668 8.33333,25.54668 8.33333,24.16668 C8.33333,22.78668 9.45333,21.66668 10.83333,21.66668 C12.21333,21.66668 13.33333,22.78668 13.33333,24.16668 C13.33333,25.54668 12.21333,26.66668 10.83333,26.66668 Z M23.33333,24.16668 C23.33333,22.78668 24.45333,21.66668 25.83333,21.66668 C27.21333,21.66668 28.33333,22.78668 28.33333,24.16668 C28.33333,25.54668 27.21333,26.66668 25.83333,26.66668 C24.45333,26.66668 23.33333,25.54668 23.33333,24.16668 Z" id="Shape"></path><polygon id="Path" points="36.66733 8.33328 33.33403 8.33328 33.33403 14.99988 36.66733 14.99988"></polygon><polygon id="Path" points="3.33333 8.33328 -6.66133815e-16 8.33328 -6.66133815e-16 14.99988 3.33333 14.99988"></polygon></g></g></svg> 