<?xml version="1.0" encoding="UTF-8"?> <svg xmlns="http://www.w3.org/2000/svg" xmlns:xlink="http://www.w3.org/1999/xlink" width="40px" height="40px" viewBox="0 0 40 40" version="1.1"><title>discordhq</title><g id="Page-1" stroke="none" stroke-width="1" fill="none" fill-rule="evenodd"><g id="discordhq"><rect id="Rectangle" x="0" y="0" width="40" height="40"></rect><polygon id="Path" fill="#FFFFFF" fill-rule="nonzero" points="6.25 32 5 37 15 37 13.75 32"></polygon><polygon id="Path" fill="#FFFFFF" fill-rule="nonzero" points="26.25 32 25 37 35 37 33.75 32"></polygon><path d="M40,17.4167 L40,14.9167 C36.06,14.9167 32.7583,12.2817 31.6667,8.695 L31.6667,2 L28.3333,2 L28.3333,8.695 C27.2417,12.2817 23.94,14.9167 20,14.9167 C16.06,14.9167 12.7583,12.2817 11.6667,8.695 L11.6667,2 L8.33333,2 L8.33333,8.695 C7.24167,12.2817 3.94,14.9167 0,14.9167 L0,17.4167 C3.305,17.4167 6.27333,15.975 8.33333,13.6983 L8.33333,22 L0,22 L0,25.3333 L8.33333,25.3333 L8.33333,30.3333 L11.6667,30.3333 L11.6667,25.3333 L28.3333,25.3333 L28.3333,30.3333 L31.6667,30.3333 L31.6667,25.3333 L40,25.3333 L40,22 L31.6667,22 L31.6667,13.6983 C33.7267,15.975 36.695,17.4167 40,17.4167 Z M28.3333,22 L11.6667,22 L11.6667,13.6983 C13.7267,15.975 16.695,17.4167 20,17.4167 C23.305,17.4167 26.2733,15.975 28.3333,13.6983 L28.3333,22 Z" id="Shape" fill="#FFFFFF" fill-rule="nonzero"></path></g></g></svg> 