<?xml version="1.0" encoding="UTF-8"?> <svg xmlns="http://www.w3.org/2000/svg" xmlns:xlink="http://www.w3.org/1999/xlink" width="40px" height="40px" viewBox="0 0 40 40" version="1.1"><title>health</title><g id="Page-1" stroke="none" stroke-width="1" fill="none" fill-rule="evenodd"><g id="health"><rect id="Rectangle" x="0" y="0" width="40" height="40"></rect><path d="M32.8463,10.4883 L26.1796,3.82159 C25.8663,3.50992 25.4446,3.33325 25.0013,3.33325 L8.33464,3.33325 C7.41297,3.33325 6.66797,4.07992 6.66797,4.99992 L6.66797,34.9999 C6.66797,35.9199 7.41297,36.6666 8.33464,36.6666 L31.668,36.6666 C32.5896,36.6666 33.3346,35.9199 33.3346,34.9999 L33.3346,11.6666 C33.3346,11.2249 33.1596,10.8016 32.8463,10.4883 Z M15.0013,14.9999 L18.3346,14.9999 L18.3346,11.6666 L21.668,11.6666 L21.668,14.9999 L25.0013,14.9999 L25.0013,18.3333 L21.668,18.3333 L21.668,21.6666 L18.3346,21.6666 L18.3346,18.3333 L15.0013,18.3333 L15.0013,14.9999 Z M28.3346,31.6666 L11.668,31.6666 L11.668,29.9999 L28.3346,29.9999 L28.3346,31.6666 Z M28.3346,26.6666 L11.668,26.6666 L11.668,24.9999 L28.3346,24.9999 L28.3346,26.6666 Z M25.0013,11.6666 L25.0013,4.99992 L31.668,11.6666 L25.0013,11.6666 Z" id="Shape" fill="#FFFFFF" fill-rule="nonzero"></path></g></g></svg> 