<?xml version="1.0" encoding="UTF-8"?> <svg xmlns="http://www.w3.org/2000/svg" xmlns:xlink="http://www.w3.org/1999/xlink" width="40px" height="40px" viewBox="0 0 40 40" version="1.1"><title>loadout</title><g id="Page-1" stroke="none" stroke-width="1" fill="none" fill-rule="evenodd"><g id="loadout"><rect id="Rectangle" x="0" y="0" width="40" height="40"></rect><path d="M18.334,8.33325 L18.334,9.99992 L21.6673,9.99992 L21.6673,8.33325 C21.6673,5.57659 19.424,3.33325 16.6673,3.33325 L13.334,3.33325 L13.334,6.66659 L16.6673,6.66659 C17.5857,6.66659 18.334,7.41492 18.334,8.33325 Z" id="Path" fill="#FFFFFF" fill-rule="nonzero"></path><path d="M30.0007,3.33325 C30.0007,3.33325 26.6673,3.33325 25.0007,4.99992 C23.334,6.66659 23.334,9.99992 23.334,9.99992 C23.334,9.99992 26.6673,9.99992 28.334,8.33325 C30.0007,6.66659 30.0007,3.33325 30.0007,3.33325 Z" id="Path" fill="#FFFFFF" fill-rule="nonzero"></path><path d="M28.3007,20.9451 C27.984,16.5201 25.6673,11.6667 20.0007,11.6667 C14.3373,11.6667 12.019,16.5201 11.7023,20.9451 C10.099,22.5767 8.33398,24.6617 8.33398,28.3334 C8.33398,32.3467 11.984,36.6667 20.0007,36.6667 C28.0173,36.6667 31.6673,32.3467 31.6673,28.3334 C31.6673,24.6617 29.9023,22.5767 28.3007,20.9451 Z" id="Path" fill="#FFFFFF" fill-rule="nonzero"></path></g></g></svg> 