<?xml version="1.0" encoding="UTF-8"?> <svg xmlns="http://www.w3.org/2000/svg" xmlns:xlink="http://www.w3.org/1999/xlink" width="40px" height="40px" viewBox="0 0 40 40" version="1.1"><title>parental</title><g id="Page-1" stroke="none" stroke-width="1" fill="none" fill-rule="evenodd"><g id="parental" fill="#FFFFFF" fill-rule="nonzero"><polygon id="Path" points="21.6667 6.66667 21.6667 0 18.3333 0 18.3333 6.66667 0 6.66667 0 10 5 10 5 16.6667 8.33333 16.6667 8.33333 10 18.3333 10 18.3333 21.6667 21.6667 21.6667 21.6667 10 31.6667 10 31.6667 18.3333 35 18.3333 35 10 40 10 40 6.66667"></polygon><polygon id="Path" points="28.334 30 38.334 30 33.334 20"></polygon><path d="M6.66602,28.3333 C9.42744,28.3333 11.666,26.0947 11.666,23.3333 C11.666,20.5718 9.42744,18.3333 6.66602,18.3333 C3.90459,18.3333 1.66602,20.5718 1.66602,23.3333 C1.66602,26.0947 3.90459,28.3333 6.66602,28.3333 Z" id="Path"></path><path d="M15,31.6666 C15,38.3332 20.3983,39.9999 25,39.9999 C25,39.9999 21.6667,36.6666 21.6667,31.6666 C21.6667,26.6666 25,23.3333 25,23.3333 C20.3983,23.3333 15,24.9999 15,31.6666 Z" id="Path"></path></g></g></svg> 