<?xml version="1.0" encoding="UTF-8"?> <svg xmlns="http://www.w3.org/2000/svg" xmlns:xlink="http://www.w3.org/1999/xlink" width="34px" height="34px" viewBox="0 0 34 34" version="1.1"><title>relocation</title><g id="Page-1" stroke="none" stroke-width="1" fill="none" fill-rule="evenodd"><g id="relocation" transform="translate(0.333980, 0.333253)" fill="#FFFFFF" fill-rule="nonzero"><polygon id="Path" points="8.35182 3.5400375 1.8418 6.4333675 16.66682 13.1700475 22.39842 10.5667475"></polygon><path d="M26.30192,8.7900475 L31.49022,6.4333275 L17.34352,0.1449975 C16.91192,-0.0483325 16.42022,-0.0483325 15.99022,0.1449975 L12.29692,1.7883375 L26.30192,8.7900475 Z" id="Path"></path><path d="M18.33202,16.0735475 L18.33202,32.7501475 L32.34202,26.5235475 C32.94532,26.2585475 33.33202,25.6601475 33.33202,25.0018475 L33.33202,9.2568475 L18.33202,16.0735475 Z" id="Path"></path><path d="M15.00002,16.0735475 L0,9.2568475 L0,25.0018475 C0,25.6618475 0.38667,26.2585475 0.99,26.5251475 L15.00002,32.7501475 L15.00002,16.0735475 Z M3.33334,20.0018475 L3.33334,15.0018475 L11.66672,18.3351475 L11.66672,23.3351475 L3.33334,20.0018475 Z" id="Shape"></path></g></g></svg> 