<?xml version="1.0" encoding="UTF-8"?> <svg xmlns="http://www.w3.org/2000/svg" xmlns:xlink="http://www.w3.org/1999/xlink" width="32px" height="39px" viewBox="0 0 32 39" version="1.1"><title>wellness</title><g id="Page-1" stroke="none" stroke-width="1" fill="none" fill-rule="evenodd"><g id="wellness" transform="translate(0.992189, 0.000000)" fill="#FFFFFF" fill-rule="nonzero"><path d="M30.9691105,34.2583 L29.2391105,22.7217 C29.1074105,21.8483 28.6357105,21.0617 27.9241105,20.535 C27.4874105,20.215 26.9807105,20.02 26.4557105,19.94 L23.8024105,8.00333 C23.6224105,3.56333 19.9841105,0 15.5024105,0 C11.0224105,0 7.38241052,3.56333 7.20411052,8.00167 L4.55075052,19.9383 C4.02408052,20.02 3.51742052,20.2133 3.08242052,20.5333 C2.37075052,21.06 1.89909052,21.8467 1.76575052,22.72 L0.0374205191,34.2567 C-0.235909481,36.08 1.01742052,37.7733 2.83908052,38.0483 L4.48742052,38.2933 C6.30741052,38.5667 8.00411052,37.3133 8.27741052,35.4917 L10.0074105,23.955 C10.2457105,22.3667 9.32071052,20.875 7.87411052,20.3367 L9.31411052,13.86 C10.8424105,15.57 13.0374105,16.6667 15.5024105,16.6667 C17.9674105,16.6667 20.1624105,15.57 21.6907105,13.8633 L23.1307105,20.34 C21.6824105,20.8783 20.7591105,22.37 20.9974105,23.9583 L22.7291105,35.495 C23.0024105,37.315 24.7007105,38.5683 26.5191105,38.2967 L28.1674105,38.0517 C29.9891105,37.775 31.2424105,36.08 30.9691105,34.2583 Z M15.5024105,13.3333 C12.7457105,13.3333 10.5024105,11.09 10.5024105,8.33333 C10.5024105,5.57667 12.7457105,3.33333 15.5024105,3.33333 C18.2591105,3.33333 20.5024105,5.57667 20.5024105,8.33333 C20.5024105,11.09 18.2591105,13.3333 15.5024105,13.3333 Z" id="Shape"></path></g></g></svg> 