<?xml version="1.0" encoding="UTF-8"?>
<svg width="40px" height="40px" viewBox="0 0 40 40" version="1.1" xmlns="http://www.w3.org/2000/svg" xmlns:xlink="http://www.w3.org/1999/xlink">
    <title>kick-back</title>
    <g id="Page-1" stroke="none" stroke-width="1" fill="none" fill-rule="evenodd">
        <g id="kick-back">
            <rect id="Rectangle" x="0" y="0" width="40" height="40"></rect>
            <path d="M28.4054,6.73234 C31.4187,5.92734 34.5587,6.339 37.2587,7.899 L38.9254,5.01067 C32.5004,1.304 24.4537,2.91567 19.8787,8.4523 C15.302,2.914 7.2537,1.30234 0.832031,5.01067 L2.4987,7.899 C5.1987,6.339 8.34203,5.92567 11.352,6.73234 C13.4704,7.299 15.3337,8.434 16.8004,9.989 C10.002,11.4123 4.8787,17.454 4.8787,24.6673 L8.21203,24.6673 C8.21203,18.489 13.0437,13.429 19.127,13.039 L14.7587,36.3323 L24.7587,36.3323 L24.1337,32.999 L19.7587,32.999 L19.7587,31.3323 L23.822,31.3323 L23.197,27.999 L19.7604,27.999 L19.7604,26.3323 L22.8854,26.3323 L22.2604,22.999 L19.7604,22.999 L19.7604,21.3323 L21.947,21.3323 L20.3904,13.0273 C26.5854,13.2973 31.547,18.4057 31.547,24.6673 L34.8804,24.6673 C34.8804,17.4523 29.757,11.4123 22.9587,9.989 C24.4254,8.434 26.2887,7.299 28.4054,6.73234 Z" id="Path" fill="#FFFFFF" fill-rule="nonzero"></path>
        </g>
    </g>
</svg>