<?xml version="1.0" encoding="UTF-8"?>
<svg width="40px" height="40px" viewBox="0 0 40 40" version="1.1" xmlns="http://www.w3.org/2000/svg" xmlns:xlink="http://www.w3.org/1999/xlink">
    <title>trans</title>
    <g id="Page-1" stroke="none" stroke-width="1" fill="none" fill-rule="evenodd">
        <g id="trans">
            <rect id="Rectangle" x="0" y="0" width="40" height="40"></rect>
            <path d="M33.2696,18.3649 C31.578,10.9766 29.8313,3.33325 19.0013,3.33325 C11.6496,3.33325 5.66797,9.31492 5.66797,16.6666 L5.66797,36.6666 L25.668,36.6666 L25.668,31.6666 L27.3346,31.6666 C29.173,31.6666 30.668,30.1716 30.668,28.3333 L30.668,23.3333 L34.4696,23.3333 C34.4696,23.3333 33.4863,19.3199 33.2696,18.3649 Z M19.0013,23.3133 C19.0013,23.3133 12.3346,18.4666 12.3346,14.8733 C12.3346,11.4616 17.5196,9.97825 19.0013,14.4599 C20.483,9.97992 25.668,11.4616 25.668,14.8733 C25.668,18.4666 19.0013,23.3133 19.0013,23.3133 Z" id="Shape" fill="#FFFFFF" fill-rule="nonzero"></path>
        </g>
    </g>
</svg>